<?xml version="1.0" standalone="no"?>
<!DOCTYPE svg PUBLIC "-//W3C//DTD SVG 20010904//EN"
 "http://www.w3.org/TR/2001/REC-SVG-20010904/DTD/svg10.dtd">
<svg version="1.0" xmlns="http://www.w3.org/2000/svg"
 width="300.000000pt" height="300.000000pt" viewBox="0 0 300.000000 300.000000"
 preserveAspectRatio="xMidYMid meet">
<metadata>
Created by potrace 1.11, written by Peter Selinger 2001-2013
</metadata>
<g transform="translate(0.000000,300.000000) scale(0.100000,-0.100000)"
fill="#000000" stroke="none">
<path d="M1227 2846 c-14 -13 -29 -35 -32 -49 -8 -32 17 -92 46 -107 20 -11
12 -15 -84 -45 -335 -101 -595 -332 -750 -665 -26 -57 -55 -151 -78 -255 -21
-90 -18 -349 5 -455 36 -169 100 -317 198 -455 134 -189 389 -385 499 -385 35
0 48 6 80 39 33 33 39 45 39 82 0 61 -27 99 -94 134 -84 43 -209 147 -277 229
-71 85 -151 241 -180 351 -30 115 -37 317 -14 421 42 190 117 336 239 462 132
138 326 245 500 277 l40 7 -37 -41 c-39 -44 -47 -83 -25 -124 18 -34 40 -46
83 -47 39 0 46 6 202 163 88 89 164 172 168 185 8 28 -26 102 -55 120 -67 41
-388 182 -415 182 -20 0 -42 -9 -58 -24z"/>
<path d="M1923 2560 c-60 -36 -81 -116 -45 -175 10 -17 43 -43 73 -59 150 -81
296 -232 379 -390 181 -350 122 -778 -147 -1066 -138 -147 -305 -239 -518
-285 l-30 -6 37 38 c20 21 40 50 43 64 9 38 -19 88 -61 105 -53 22 -83 3 -251
-168 -134 -135 -153 -159 -153 -187 0 -36 19 -79 46 -102 37 -31 391 -189 423
-189 44 0 91 47 91 90 0 41 -15 67 -51 89 l-29 18 57 12 c59 14 240 83 283
109 270 164 448 368 545 625 58 155 70 228 70 427 0 161 -3 196 -23 273 -88
333 -276 583 -568 755 -79 47 -121 53 -171 22z"/>
<path d="M1004 2010 c-31 -12 -64 -59 -64 -91 0 -15 11 -40 24 -56 70 -82 508
-509 528 -514 51 -12 74 5 248 177 l175 173 0 46 c0 39 -5 51 -28 71 -19 16
-40 24 -64 24 -33 0 -48 -12 -170 -132 l-133 -132 -213 211 c-184 184 -245
235 -275 232 -4 0 -17 -4 -28 -9z"/>
</g>
</svg>
